<?xml version="1.0" standalone="no"?>
<!DOCTYPE svg PUBLIC "-//W3C//DTD SVG 20010904//EN"
 "http://www.w3.org/TR/2001/REC-SVG-20010904/DTD/svg10.dtd">
<svg version="1.0" xmlns="http://www.w3.org/2000/svg"
 width="64.000000pt" height="64.000000pt" viewBox="0 0 64.000000 64.000000"
 preserveAspectRatio="xMidYMid meet">

<g transform="translate(0.000000,64.000000) scale(0.100000,-0.100000)"
fill="#000000" stroke="none">
<path d="M240 541 c0 -5 7 -11 15 -15 15 -5 67 -111 132 -265 33 -79 36 -102
18 -144 -7 -16 2 -17 99 -17 97 0 125 7 96 25 -14 9 -65 112 -130 260 -41 95
-50 123 -41 137 6 10 11 20 11 23 0 3 -45 5 -100 5 -55 0 -100 -4 -100 -9z
m160 -26 c0 -21 64 -174 121 -287 27 -54 49 -100 49 -103 0 -3 -31 -5 -70 -5
l-69 0 5 28 c6 32 -21 108 -95 266 -28 60 -51 110 -51 112 0 2 25 4 55 4 42 0
55 -4 55 -15z"/>
<path d="M180 441 c0 -16 -3 -43 -7 -62 -5 -28 -7 -30 -14 -14 -4 11 -8 32 -8
48 -1 46 -18 30 -25 -25 -5 -37 -10 -48 -16 -38 -6 8 -10 26 -11 40 0 23 -1
23 -9 5 -18 -41 -10 -64 34 -108 24 -25 47 -58 51 -76 9 -40 21 -40 30 0 4 18
27 51 51 76 44 44 52 67 34 108 -8 18 -9 18 -9 -5 -1 -14 -5 -31 -10 -38 -10
-16 -21 16 -21 61 0 15 -4 27 -10 27 -5 0 -10 -12 -11 -27 0 -16 -4 -37 -8
-48 -7 -16 -9 -14 -14 14 -4 19 -7 46 -7 62 0 16 -4 29 -10 29 -5 0 -10 -13
-10 -29z"/>
<path d="M101 211 c-6 -22 -25 -53 -41 -70 -17 -16 -30 -32 -30 -35 0 -3 32
-6 70 -6 68 0 70 1 70 26 0 28 -38 124 -50 124 -4 0 -12 -18 -19 -39z m44 -58
c7 -33 7 -33 -34 -33 l-40 0 24 36 c14 20 25 42 25 48 1 18 17 -16 25 -51z"/>
</g>
</svg>
